M48
; DRILL file {KiCad (6.0.5-0)} date 
; FORMAT={-:-/ absolute / inch / decimal}
; #@! TF.CreationDate,2023-05-20T21:44:24+09:00
; #@! TF.GenerationSoftware,Kicad,Pcbnew,(6.0.5-0)
; #@! TF.FileFunction,Plated,1,2,PTH
FMAT,2
INCH
; #@! TA.AperFunction,Plated,PTH,ComponentDrill
T1C0.0394
%
G90
G05
T1
X4.21Y-1.99
X4.21Y-2.09
X4.21Y-2.19
X4.21Y-2.29
X4.21Y-2.39
X4.21Y-2.49
X4.21Y-2.59
X4.21Y-2.69
X4.21Y-2.79
X4.21Y-2.89
X4.21Y-2.99
X4.21Y-3.09
X4.21Y-3.19
X4.21Y-3.29
X4.21Y-3.39
X4.21Y-3.49
X4.21Y-3.59
X4.21Y-3.69
X4.21Y-3.79
X4.21Y-3.89
X4.35Y-1.99
X4.35Y-2.09
X4.35Y-2.19
X4.35Y-2.29
X4.35Y-2.39
X4.35Y-2.49
X4.35Y-2.59
X4.35Y-2.69
X4.35Y-2.79
X4.35Y-2.89
X4.35Y-2.99
X4.35Y-3.09
X4.35Y-3.19
X4.35Y-3.29
X4.35Y-3.39
X4.35Y-3.49
X4.35Y-3.59
X4.35Y-3.69
X4.35Y-3.79
X4.35Y-3.89
X4.55Y-1.99
X4.55Y-2.09
X4.55Y-2.19
X4.55Y-2.29
X4.55Y-2.39
X4.55Y-2.49
X4.55Y-2.59
X4.55Y-2.69
X4.55Y-2.79
X4.55Y-2.89
X4.55Y-2.99
X4.55Y-3.09
X4.55Y-3.19
X4.55Y-3.29
X4.55Y-3.39
X4.55Y-3.49
X4.55Y-3.59
X4.55Y-3.69
X4.55Y-3.79
X4.55Y-3.89
X4.69Y-1.99
X4.69Y-2.09
X4.69Y-2.19
X4.69Y-2.29
X4.69Y-2.39
X4.69Y-2.49
X4.69Y-2.59
X4.69Y-2.69
X4.69Y-2.79
X4.69Y-2.89
X4.69Y-2.99
X4.69Y-3.09
X4.69Y-3.19
X4.69Y-3.29
X4.69Y-3.39
X4.69Y-3.49
X4.69Y-3.59
X4.69Y-3.69
X4.69Y-3.79
X4.69Y-3.89
T0
M30
