%TF.GenerationSoftware,KiCad,Pcbnew,(6.0.5-0)*%
%TF.CreationDate,2023-05-20T21:44:28+09:00*%
%TF.ProjectId,pico-ski-board,7069636f-2d73-46b6-992d-626f6172642e,rev?*%
%TF.SameCoordinates,Original*%
%TF.FileFunction,Profile,NP*%
%FSLAX46Y46*%
G04 Gerber Fmt 4.6, Leading zero omitted, Abs format (unit mm)*
G04 Created by KiCad (PCBNEW (6.0.5-0)) date 2023-05-20 21:44:28*
%MOMM*%
%LPD*%
G01*
G04 APERTURE LIST*
%TA.AperFunction,Profile*%
%ADD10C,0.100000*%
%TD*%
G04 APERTURE END LIST*
D10*
X112522000Y-96266000D02*
G75*
G03*
X113538000Y-96266000I508000J0D01*
G01*
X113538000Y-101346000D02*
G75*
G03*
X112522000Y-101346000I-508000J0D01*
G01*
X121158000Y-41402000D02*
G75*
G03*
X113538000Y-41402000I-3810000J-2199706D01*
G01*
X113330000Y-43942000D02*
G75*
G03*
X113330000Y-43942000I-300000J0D01*
G01*
X112522000Y-48006000D02*
X112522000Y-96266000D01*
X113330000Y-44704000D02*
G75*
G03*
X113330000Y-44704000I-300000J0D01*
G01*
X113330000Y-98806000D02*
G75*
G03*
X113330000Y-98806000I-300000J0D01*
G01*
X113538000Y-48006000D02*
G75*
G03*
X112522000Y-48006000I-508000J0D01*
G01*
X113538000Y-41402000D02*
X113538000Y-42926000D01*
X112522000Y-102870000D02*
X112522000Y-101346000D01*
X113330000Y-46990000D02*
G75*
G03*
X113330000Y-46990000I-300000J0D01*
G01*
X113538000Y-102870000D02*
G75*
G03*
X121158000Y-102870000I3810000J2199706D01*
G01*
X104902000Y-102870000D02*
G75*
G03*
X112522000Y-102870000I3810000J2199706D01*
G01*
X113330000Y-98044000D02*
G75*
G03*
X113330000Y-98044000I-300000J0D01*
G01*
X112522000Y-42926000D02*
G75*
G03*
X113538000Y-42926000I508000J0D01*
G01*
X121158000Y-41402000D02*
X121158000Y-102870000D01*
X112522000Y-41402000D02*
X112522000Y-42926000D01*
X113330000Y-45466000D02*
G75*
G03*
X113330000Y-45466000I-300000J0D01*
G01*
X113538000Y-102870000D02*
X113538000Y-101346000D01*
X113538000Y-48006000D02*
X113538000Y-96266000D01*
X112522000Y-41402000D02*
G75*
G03*
X104902000Y-41402000I-3810000J-2199706D01*
G01*
X113330000Y-46228000D02*
G75*
G03*
X113330000Y-46228000I-300000J0D01*
G01*
X113330000Y-99568000D02*
G75*
G03*
X113330000Y-99568000I-300000J0D01*
G01*
X113330000Y-100330000D02*
G75*
G03*
X113330000Y-100330000I-300000J0D01*
G01*
X113330000Y-97282000D02*
G75*
G03*
X113330000Y-97282000I-300000J0D01*
G01*
X104902000Y-41402000D02*
X104902000Y-102870000D01*
M02*
